Coordinates
version=1
nRows=19
nColumns=33
inDegrees=yes

Units are S.I. units (second, meters, Newtons, ...)
Angles are in degrees.

endheader
time	ground_thorax_rot_x	ground_thorax_rot_y	ground_thorax_rot_z	ground_thorax_tx	ground_thorax_ty	ground_thorax_tz	clav_prot_r	clav_elev_r	scapula_abduction_r	scapula_elevation_r	scapula_upward_rot_r	scapula_winging_r	shoulder_elv_r	plane_of_elev_r	axial_rot_r	elbow_flexion_r	pro_sup_r	wrist_flex_r	wrist_dev_r	clav_prot_l	clav_elev_l	scapula_abduction_l	scapula_elevation_l	scapula_upward_rot_l	scapula_winging_l	shoulder_elv_l	plane_of_elev_l	axial_rot_l	elbow_flexion_l	pro_sup_l	wrist_flex_l	wrist_dev_l
      6.90000000	    -40.98120489	     -8.55281342	     15.98491540	   -264.88120886	    836.94113143	     -4.74957539	      8.86669309	    -45.00000000	     39.33903595	    -45.00000000	    -45.00000000	   2420.68512267	  -1185.61076142	    147.02921072	    179.99999979	   1809.97666537	     73.16034737	     27.93950131	      7.89989581	     15.44917210	     37.80198407	    -36.37445906	    -45.00000000	    -45.00000000	  -3155.03414752	  -2806.51947706	     26.01771108	    -27.40333438	   1813.42919833	     50.11894351	     -1.05834588	    -17.19308539
      6.91000000	    -40.94016884	     -8.79812381	     16.17427893	   -264.88436533	    836.73921654	     -4.69676493	      9.09734443	    -45.00000000	     39.34350215	    -45.00000000	    -45.00000000	   2420.59621045	  -1185.67970476	    147.03153647	    179.99999979	   1809.86731859	     73.05946426	     27.95097483	      7.72872826	     15.07242314	     38.23132286	    -36.02286586	    -45.00000000	    -44.84377109	  -3155.29928830	  -2806.17210155	     25.76066519	    -27.44459237	   1813.67096335	     50.19848520	     -0.76323945	    -17.00697427
      6.92000000	    -40.97239059	     -8.71401883	     16.03873730	   -264.82863473	    836.53636080	     -4.64667231	      9.09840081	    -45.00000000	     39.40640292	    -45.00000000	    -45.00000000	   2420.61657027	  -1185.72251518	    147.07297381	    179.99999979	   1810.08070200	     73.01625511	     27.96961311	      7.87867560	     15.26328217	     37.59909451	    -36.28252981	    -45.00000000	    -45.00000000	  -3154.95105129	  -2806.57658909	     26.14223352	    -27.34592360	   1813.51253377	     50.29183554	     -1.06949104	    -17.08630067
      6.93000000	    -40.92865448	     -8.80721616	     16.09598010	   -264.71423124	    836.32675429	     -4.59879701	      9.06896622	    -45.00000000	     39.40808651	    -45.00000000	    -45.00000000	   2420.64080691	  -1185.73122336	    147.04989063	    179.99999979	   1809.99682333	     72.99613119	     27.97101708	      7.75173472	     15.18172211	     38.08232246	    -36.09941927	    -45.00000000	    -44.96637408	  -3155.27477622	  -2806.30543556	     25.90569365	    -27.33542359	   1813.67365363	     50.35123461	     -0.87571382	    -17.02230683
      6.94000000	    -40.94210065	     -8.88304623	     16.09374575	   -264.55109185	    836.12087642	     -4.55580291	      9.11412535	    -45.00000000	     39.40282540	    -45.00000000	    -45.00000000	   2420.66700928	  -1185.70618202	    147.05670880	    179.99999979	   1810.03311903	     73.02250175	     27.95451868	      7.81627354	     15.22688193	     37.76707806	    -36.16756296	    -45.00000000	    -45.00000000	  -3155.11097580	  -2806.47249386	     26.06168278	    -27.15210530	   1813.59010975	     50.38245234	     -0.99206562	    -17.01768206
      6.95000000	    -40.90096851	     -8.96231080	     16.16569074	   -264.33683324	    835.90897646	     -4.51569413	      9.09538281	    -45.00000000	     39.42785843	    -45.00000000	    -45.00000000	   2420.67336692	  -1185.70186933	    147.06746785	    179.99999979	   1810.03829981	     73.03470230	     27.95248596	      7.74903007	     15.20652309	     38.02250521	    -36.12434275	    -45.00000000	    -45.00000000	  -3155.28051797	  -2806.36530811	     25.94585808	    -27.05337832	   1813.63420992	     50.37987897	     -0.91090987	    -16.98905975
      6.96000000	    -40.89304464	     -9.00913705	     16.20036982	   -264.08619756	    835.70539314	     -4.48150500	      9.12671265	    -45.00000000	     39.46532418	    -45.00000000	    -45.00000000	   2420.68307257	  -1185.65964015	    147.09954727	    179.99999979	   1810.10897414	     73.05478015	     27.95189995	      7.78137803	     15.22878339	     37.72730035	    -36.20952412	    -45.00000000	    -45.00000000	  -3155.18715855	  -2806.56822028	     26.10117341	    -26.87604342	   1813.50739576	     50.35623469	     -0.96309908	    -16.94868147
      6.97000000	    -40.95049838	     -9.04936851	     16.16368171	   -263.79892254	    835.50866105	     -4.45310217	      9.12555103	    -45.00000000	     39.42965562	    -45.00000000	    -45.00000000	   2420.71545794	  -1185.70293093	    147.04922785	    179.99999979	   1810.14413352	     73.05557798	     27.93420621	      7.72208416	     15.20645569	     38.19684624	    -36.07076705	    -45.00000000	    -44.86874767	  -3155.40547173	  -2806.23568342	     25.88084750	    -26.88614903	   1813.72321626	     50.29079811	     -0.89981932	    -17.03584160
      6.98000000	    -40.96329800	     -9.11673912	     16.14866157	   -263.47876861	    835.32400536	     -4.43184494	      9.13053781	    -45.00000000	     39.43611392	    -45.00000000	    -45.00000000	   2420.74369813	  -1185.70700785	    147.01207693	    179.99999979	   1810.24147414	     73.06413681	     27.96996521	      7.76149963	     15.22728103	     37.73264754	    -36.18066698	    -45.00000000	    -45.00000000	  -3155.14286854	  -2806.51199704	     26.18742756	    -26.71240448	   1813.60781492	     50.20234500	     -0.95532204	    -16.95612125
      6.99000000	    -40.85090030	     -9.28991065	     16.37193384	   -263.13778550	    835.16070762	     -4.41935145	      9.12535927	    -45.00000000	     39.49328063	    -45.00000000	    -45.00000000	   2420.71151902	  -1185.58265018	    147.11591291	    179.99999979	   1810.32777442	     73.04679509	     27.90844559	      7.69587315	     15.23104022	     38.19937548	    -36.23164215	    -45.00000000	    -45.00000000	  -3155.54109078	  -2806.42590925	     25.81373328	    -26.54521074	   1813.49828380	     50.12055884	     -0.88998743	    -16.96424364
      7.00000000	    -40.95733771	     -9.19538933	     16.15691902	   -262.75399123	    835.01137769	     -4.41571110	      9.16399908	    -45.00000000	     39.43648246	    -45.00000000	    -45.00000000	   2420.76012796	  -1185.61870892	    146.91217374	    179.99999979	   1810.42365769	     73.04394243	     27.97022320	      7.74117706	     15.23809031	     37.66887635	    -36.23380441	    -45.00000000	    -45.00000000	  -3155.20645624	  -2806.58471685	     26.28109590	    -26.37235255	   1813.46821136	     49.98641254	     -0.91480244	    -16.93440281
      7.01000000	    -40.96623629	     -9.57421366	     16.40738852	   -262.34932359	    834.88865211	     -4.42212565	      9.08856456	    -45.00000000	     39.64044636	    -45.00000000	    -45.00000000	   2420.85699660	  -1185.69861502	    147.17834646	    179.99999979	   1810.52767746	     73.01892657	     27.88288681	      7.68090174	     15.24370875	     38.37919375	    -36.12358002	    -45.00000000	    -45.00000000	  -3155.44915681	  -2806.14934365	     25.64639157	    -26.25885912	   1813.91038059	     49.82170228	     -0.94477526	    -17.07662747
      7.02000000	    -41.00660194	     -9.32931070	     16.20889336	   -261.89903667	    834.78564344	     -4.43848017	      9.21187731	    -45.00000000	     39.53064816	    -45.00000000	    -45.00000000	   2420.80789266	  -1185.63638911	    146.85775261	    179.99999979	   1810.54288875	     73.02278204	     27.97264792	      7.74844555	     15.14787295	     37.66109374	    -36.28128968	    -45.00000000	    -45.00000000	  -3155.18886104	  -2806.48679679	     26.26937558	    -26.02006624	   1813.62846680	     49.66068563	     -0.93194622	    -16.96986807
      7.03000000	    -40.98776212	     -9.49321117	     16.30643765	   -261.40387251	    834.70394939	     -4.46408738	      9.18504559	    -45.00000000	     39.59281117	    -45.00000000	    -45.00000000	   2420.86551116	  -1185.60033009	    146.91573648	    179.99999979	   1810.64424100	     72.99609429	     27.89260661	      7.72836273	     15.23590188	     38.04278182	    -36.10832524	    -45.00000000	    -44.98197508	  -3155.41391970	  -2806.20354151	     26.11931480	    -25.94095519	   1813.66312718	     49.47204450	     -0.89604852	    -17.05944890
      7.04000000	    -40.98302770	     -9.55608503	     16.29446362	   -260.85996842	    834.64197963	     -4.49725417	      9.27822652	    -45.00000000	     39.63040977	    -45.00000000	    -45.00000000	   2420.84105038	  -1185.59078362	    146.81025673	    179.99999979	   1810.78216282	     72.95865129	     27.93117501	      7.73397825	     15.10008722	     37.75190380	    -36.12648201	    -45.00000000	    -45.00000000	  -3155.35515302	  -2806.30092162	     26.26915507	    -25.67571403	   1813.57928767	     49.25689189	     -0.89383198	    -17.03507901
      7.05000000	    -40.98643223	     -9.66916574	     16.37292409	   -260.25828875	    834.59634519	     -4.53611817	      9.32121617	    -45.00000000	     39.71203696	    -45.00000000	    -45.00000000	   2420.87410152	  -1185.60465034	    146.82149545	    179.99999979	   1810.87494087	     72.92244342	     27.88073166	      7.73786221	     15.06084413	     37.90303653	    -36.08060515	    -45.00000000	    -44.95346420	  -3155.46561263	  -2806.12406202	     26.19046810	    -25.48480937	   1813.56226171	     49.01948706	     -0.86154377	    -17.10548418
      7.06000000	    -40.94977598	     -9.79262955	     16.43879620	   -259.59259854	    834.56402399	     -4.57879075	      9.35980389	    -45.00000000	     39.80530767	    -45.00000000	    -45.00000000	   2420.88574934	  -1185.56119446	    146.77236195	    179.99999979	   1811.00658016	     72.87136253	     27.88106955	      7.74630152	     15.03264987	     37.78219366	    -36.00772296	    -45.00000000	    -44.99619169	  -3155.45957102	  -2806.11200737	     26.32704547	    -25.27465286	   1813.50066673	     48.75914797	     -0.84556636	    -17.12242287
      7.07000000	    -40.95983710	     -9.65584152	     16.36693142	   -258.86525532	    834.54230984	     -4.62329882	      9.39451585	    -45.00000000	     39.63194339	    -45.00000000	    -45.00000000	   2420.89083223	  -1185.42780803	    146.62015705	    179.99999979	   1811.16291253	     72.80057031	     27.84886687	      7.73002542	     14.95746931	     37.84406568	    -36.35864544	    -45.00000000	    -44.96897584	  -3155.45654030	  -2806.23978612	     26.25124750	    -25.10602634	   1813.62399161	     48.39133590	     -0.80912680	    -17.25026989
      7.08000000	    -40.91976704	     -9.85968853	     16.49131282	   -258.06723860	    834.52812506	     -4.66924115	      9.47281870	    -45.00000000	     39.85865463	    -45.00000000	    -45.00000000	   2420.87821936	  -1185.47710678	    146.60868661	    179.99999979	   1811.30718291	     72.73835918	     27.82407723	      7.75634954	     14.86040518	     37.84107815	    -36.20919801	    -45.00000000	    -44.76913188	  -3155.60541387	  -2806.11907176	     26.13254814	    -24.90631303	   1813.59304654	     48.04019164	     -0.78336455	    -17.31466368
